<svg viewBox="0 0 28.3042 13" xmlns="http://www.w3.org/2000/svg" xmlns:xlink="http://www.w3.org/1999/xlink" width="28.304199" height="13.000000" fill="none" customFrame="#000000">
	<g id="_StatusBar-battery">
		<path id="Outline" d="M4.11752 0.5L21.6884 0.5C23.6863 0.5 25.3059 2.067 25.3059 4L25.3059 9C25.3059 10.933 23.6863 12.5 21.6884 12.5L4.11752 12.5C2.1196 12.5 0.5 10.933 0.5 9L0.5 4C0.5 2.067 2.1196 0.5 4.11752 0.5Z" opacity="0.349999994" fill="rgb(255,255,255)" fill-rule="nonzero" />
		<path id="Outline" d="M21.6884 0.5C23.6863 0.5 25.3059 2.067 25.3059 4L25.3059 9C25.3059 10.933 23.6863 12.5 21.6884 12.5L4.11752 12.5C2.1196 12.5 0.5 10.933 0.5 9L0.5 4C0.5 2.067 2.1196 0.5 4.11752 0.5L21.6884 0.5Z" opacity="0.349999994" fill-rule="nonzero" stroke="rgb(0,0,0)" stroke-width="1.000000" />
		<path id="Battery End" d="M26.8562 5L26.8562 9.2203C27.7337 8.8629 28.3042 8.0314 28.3042 7.1102C28.3042 6.1889 27.7337 5.3574 26.8562 5Z" opacity="0.400000006" fill="rgb(255,255,255)" fill-rule="nonzero" />
		<path id="Fill" d="M2.05029 4C2.05029 2.8954 2.97533 2 4.11745 2L21.6883 2C22.8304 2 23.7554 2.8954 23.7554 4L23.7554 9C23.7554 10.1046 22.8304 11 21.6883 11L4.11745 11C2.97533 11 2.05029 10.1046 2.05029 9L2.05029 4Z" fill="rgb(255,255,255)" fill-rule="nonzero" />
	</g>
</svg>
