<svg viewBox="0 0 18.6045 12" xmlns="http://www.w3.org/2000/svg" xmlns:xlink="http://www.w3.org/1999/xlink" width="18.604492" height="12.000000" fill="none" customFrame="#000000">
	<g id="Icon / Mobile Signal">
		<path id="Vector 1" d="M10.3357 3C10.3357 2.4477 10.7987 2 11.3693 2L12.4029 2C12.9734 2 13.4364 2.4477 13.4364 3L13.4364 11C13.4364 11.5523 12.9734 12 12.4029 12L11.3693 12C10.7987 12 10.3357 11.5523 10.3357 11L10.3357 3Z" fill="rgb(255,255,255)" fill-rule="nonzero" />
		<path id="Vector 2" d="M15.5037 1C15.5037 0.447701 15.9667 0 16.5372 0L17.5708 0C18.1414 0 18.6044 0.447701 18.6044 1L18.6044 11C18.6044 11.5523 18.1414 12 17.5708 12L16.5372 12C15.9667 12 15.5037 11.5523 15.5037 11L15.5037 1Z" fill="rgb(255,255,255)" fill-rule="nonzero" />
		<path id="Vector 3" d="M5.16797 6.5C5.16797 5.9477 5.63101 5.5 6.20155 5.5L7.23513 5.5C7.80566 5.5 8.2687 5.9477 8.2687 6.5L8.2687 11C8.2687 11.5523 7.80566 12 7.23513 12L6.20155 12C5.63101 12 5.16797 11.5523 5.16797 11L5.16797 6.5Z" fill="rgb(255,255,255)" fill-rule="nonzero" />
		<path id="Vector 4" d="M0 9C0 8.4477 0.463041 8 1.03358 8L2.06716 8C2.63769 8 3.10074 8.4477 3.10074 9L3.10074 11C3.10074 11.5523 2.63769 12 2.06716 12L1.03358 12C0.463041 12 0 11.5523 0 11L0 9Z" fill="rgb(255,255,255)" fill-rule="nonzero" />
	</g>
</svg>
