<svg width="20" height="20" viewBox="0 0 20 20" fill="none" xmlns="http://www.w3.org/2000/svg">
<path d="M2.72913 12.7467C2.02079 11.8267 1.66663 11.3658 1.66663 9.99999C1.66663 8.63333 2.02079 8.17416 2.72913 7.25333C4.14329 5.41666 6.51496 3.33333 9.99996 3.33333C13.485 3.33333 15.8566 5.41666 17.2708 7.25333C17.9791 8.175 18.3333 8.63416 18.3333 9.99999C18.3333 11.3667 17.9791 11.8258 17.2708 12.7467C15.8566 14.5833 13.485 16.6667 9.99996 16.6667C6.51496 16.6667 4.14329 14.5833 2.72913 12.7467Z" stroke="#F5F3FF" stroke-width="1.5"/>
<path d="M12.5 10C12.5 10.663 12.2366 11.2989 11.7678 11.7678C11.2989 12.2366 10.663 12.5 10 12.5C9.33696 12.5 8.70107 12.2366 8.23223 11.7678C7.76339 11.2989 7.5 10.663 7.5 10C7.5 9.33696 7.76339 8.70107 8.23223 8.23223C8.70107 7.76339 9.33696 7.5 10 7.5C10.663 7.5 11.2989 7.76339 11.7678 8.23223C12.2366 8.70107 12.5 9.33696 12.5 10Z" stroke="#F5F3FF" stroke-width="1.5"/>
</svg>
