<svg viewBox="0 0 17.5708 11.834" xmlns="http://www.w3.org/2000/svg" xmlns:xlink="http://www.w3.org/1999/xlink" width="17.570801" height="11.833984" fill="none" customFrame="#000000">
	<path id="Wifi" d="M8.78546 2.58747C11.3353 2.58758 13.7869 3.55507 15.635 5.28978C15.7735 5.42368 15.9967 5.42208 16.1332 5.28597L17.4634 3.96048C17.5327 3.89148 17.5719 3.79798 17.5709 3.70078C17.5698 3.60348 17.5306 3.51048 17.4603 3.44228C12.6107 -1.14742 4.96019 -1.14742 0.110619 3.44228C0.0403427 3.51048 0.00107244 3.60337 3.15424e-05 3.70068C-0.00100936 3.79787 0.0382609 3.89137 0.107528 3.96048L1.43773 5.28597C1.57418 5.42228 1.79744 5.42397 1.93591 5.28978C3.78398 3.55487 6.23665 2.58747 8.78546 2.58747ZM8.82268 6.58937C10.2232 6.58928 11.5741 7.10348 12.6128 8.03197C12.7524 8.16377 12.9735 8.16088 13.111 8.02547L14.4391 6.69998C14.5094 6.63037 14.5477 6.53608 14.5466 6.43808C14.5456 6.34007 14.5053 6.24657 14.434 6.17838C11.2723 3.27387 6.37619 3.27387 3.21344 6.17838C3.14212 6.24657 3.10181 6.34007 3.10077 6.43818C3.09973 6.53617 3.139 6.63048 3.20931 6.69998L4.53746 8.02547C4.67388 8.16088 4.89506 8.16377 5.03564 8.03197C6.07335 7.10407 7.42321 6.58987 8.82268 6.58937ZM11.5244 9.17668C11.5265 9.27497 11.4873 9.36978 11.4159 9.43858L9.11826 11.7289C9.05007 11.7962 8.9591 11.834 8.86299 11.834C8.76685 11.834 8.67487 11.7962 8.60769 11.7289L6.31005 9.43858C6.23873 9.36967 6.19943 9.27488 6.20151 9.17657C6.20359 9.07828 6.247 8.98528 6.32036 8.91937C7.78806 7.69348 9.93789 7.69348 11.4056 8.91937C11.479 8.98528 11.5224 9.07837 11.5244 9.17668Z" fill="rgb(255,255,255)" fill-rule="evenodd" />
</svg>
