<svg width="24" height="24" viewBox="0 0 24 24" fill="none" xmlns="http://www.w3.org/2000/svg">
<path fill-rule="evenodd" clip-rule="evenodd" d="M4.54498 2.95477C4.33172 2.75605 4.04965 2.64786 3.7582 2.65301C3.46674 2.65815 3.18867 2.77622 2.98255 2.98234C2.77643 3.18846 2.65836 3.46653 2.65322 3.75799C2.64808 4.04944 2.75626 4.33151 2.95498 4.54477L4.19998 5.78977C2.71223 7.00742 1.53062 8.55687 0.74998 10.3138L0.35998 11.1913C0.2469 11.4461 0.188477 11.7217 0.188477 12.0005C0.188477 12.2793 0.2469 12.555 0.35998 12.8098L0.74998 13.6873C1.4414 15.2416 2.44735 16.6358 3.70442 17.7821C4.96149 18.9283 6.4424 19.8016 8.05379 20.347C9.66518 20.8924 11.3721 21.098 13.0669 20.9509C14.7617 20.8038 16.4077 20.3072 17.901 19.4923L19.455 21.0448C19.558 21.1553 19.6822 21.244 19.8202 21.3054C19.9582 21.3669 20.1071 21.4 20.2582 21.4027C20.4093 21.4053 20.5593 21.3775 20.6994 21.321C20.8395 21.2644 20.9667 21.1802 21.0735 21.0733C21.1804 20.9665 21.2646 20.8392 21.3212 20.6992C21.3777 20.5591 21.4055 20.409 21.4029 20.258C21.4002 20.1069 21.3671 19.958 21.3057 19.82C21.2442 19.682 21.1555 19.5578 21.045 19.4548L4.54498 2.95477ZM16.227 17.8168L14.286 15.8773C13.4264 16.3852 12.4224 16.5929 11.4318 16.4676C10.4413 16.3423 9.52059 15.8911 8.8146 15.1852C8.10861 14.4792 7.65746 13.5584 7.53216 12.5679C7.40686 11.5774 7.61453 10.5733 8.12248 9.71377L5.79898 7.39027C4.50149 8.40507 3.47333 9.72324 2.80498 11.2288L2.46148 11.9998L2.80648 12.7723C3.34873 13.9912 4.1279 15.0901 5.09867 16.0052C6.06944 16.9203 7.21244 17.6333 8.46121 18.1026C9.70999 18.572 11.0396 18.7885 12.3728 18.7394C13.706 18.6903 15.0161 18.3767 16.227 17.8168ZM9.82498 11.4163C9.72288 11.7981 9.72304 12.2001 9.82545 12.5819C9.92786 12.9637 10.1289 13.3118 10.4084 13.5913C10.6879 13.8708 11.036 14.0719 11.4178 14.1743C11.7996 14.2767 12.2016 14.2769 12.5835 14.1748L9.82498 11.4163ZM12.312 7.51027L16.488 11.6863C16.4125 10.6036 15.9483 9.58478 15.1809 8.81738C14.4135 8.04999 13.3946 7.58578 12.312 7.51027ZM21.192 12.7723C20.8348 13.5772 20.3733 14.3316 19.8195 15.0163L21.417 16.6153C22.1627 15.7304 22.7798 14.7446 23.25 13.6873L23.64 12.8098C23.7533 12.5548 23.8118 12.2788 23.8118 11.9998C23.8118 11.7207 23.7533 11.4448 23.64 11.1898L23.25 10.3138C22.0249 7.55999 19.8324 5.35109 17.0879 4.10544C14.3434 2.85978 11.2373 2.66385 8.35798 3.55477L10.215 5.41477C12.432 5.01559 14.7188 5.37167 16.7095 6.42601C18.7001 7.48036 20.2796 9.17202 21.195 11.2303L21.537 12.0013L21.192 12.7723Z" fill="#A1A1AA"/>
</svg>
