<svg width="22" height="18" viewBox="0 0 22 18" fill="none" xmlns="http://www.w3.org/2000/svg">
<path d="M2.025 12.046C1.175 10.942 0.75 10.389 0.75 8.75C0.75 7.11 1.175 6.559 2.025 5.454C3.722 3.25 6.568 0.75 10.75 0.75C14.932 0.75 17.778 3.25 19.475 5.454C20.325 6.56 20.75 7.111 20.75 8.75C20.75 10.39 20.325 10.941 19.475 12.046C17.778 14.25 14.932 16.75 10.75 16.75C6.568 16.75 3.722 14.25 2.025 12.046Z" stroke="#A1A1AA" stroke-width="1.5"/>
<path d="M13.75 8.75C13.75 9.54565 13.4339 10.3087 12.8713 10.8713C12.3087 11.4339 11.5456 11.75 10.75 11.75C9.95435 11.75 9.19129 11.4339 8.62868 10.8713C8.06607 10.3087 7.75 9.54565 7.75 8.75C7.75 7.95435 8.06607 7.19129 8.62868 6.62868C9.19129 6.06607 9.95435 5.75 10.75 5.75C11.5456 5.75 12.3087 6.06607 12.8713 6.62868C13.4339 7.19129 13.75 7.95435 13.75 8.75Z" stroke="#A1A1AA" stroke-width="1.5"/>
</svg>
